<svg width="41" height="40" viewBox="0 0 41 40" fill="none" xmlns="http://www.w3.org/2000/svg">
<path opacity="0.35" d="M16.2032 39.1998C14.7696 39.1998 13.6032 38.0334 13.6032 36.5998C13.6032 34.9618 14.5436 33.4722 16.0112 32.7634C16.0436 32.743 16.0732 32.7234 16.1004 32.705V31.2222C15.9868 31.0922 15.878 30.9582 15.7756 30.8194C15.7272 30.811 15.6792 30.8022 15.6312 30.7922C14.7304 31.3998 13.6592 31.7334 12.5504 31.7334C10.6008 31.7334 8.80835 30.679 7.82515 29.0546C5.45715 28.433 3.69995 26.2686 3.69995 23.7166C3.69995 22.2006 4.31675 20.7806 5.37075 19.7578C5.36795 19.6886 5.36675 19.6194 5.36675 19.5498C5.36675 19.473 5.36835 19.3958 5.37195 19.319C4.31715 18.2914 3.69995 16.8782 3.69995 15.383C3.69995 13.4422 4.75355 11.6526 6.37635 10.6662C6.97235 8.37581 9.01275 6.65541 11.4532 6.53941C12.4404 5.13901 14.0028 4.21541 15.7364 4.05621C16.9 2.97221 18.4248 2.36621 20.0496 2.36621C22.08 2.36621 23.9743 3.34861 25.1568 4.94581C26.3112 5.14421 27.3664 5.70381 28.1747 6.53701C28.2439 6.53461 28.3136 6.53301 28.3832 6.53301C31.3364 6.53301 33.7552 8.86581 33.8936 11.785C34.66 12.3234 35.286 13.0374 35.7224 13.8774C37.6564 14.885 38.9 16.8922 38.9 19.133C38.9 20.7914 38.2048 22.3414 37.0355 23.4438C37.1664 23.9366 37.2332 24.4474 37.2332 24.9662C37.2332 28.2378 34.5716 30.8994 31.3 30.8994C30.3016 30.8994 29.3384 30.6522 28.4812 30.1874C27.8868 30.4842 27.2508 30.6926 26.5952 30.8042C26.564 30.8502 26.5324 30.8958 26.5 30.941V32.7266C28.012 33.4022 28.9967 34.9006 28.9967 36.5998C28.9967 38.0334 27.8304 39.1998 26.3967 39.1998H16.2032Z" fill="black"/>
<path d="M15.4031 38.4C13.9695 38.4 12.8031 37.2336 12.8031 35.8C12.8031 34.162 13.7435 32.6724 15.2111 31.9636C15.2435 31.9432 15.2731 31.9236 15.3003 31.9052V30.4224C15.1867 30.2924 15.0779 30.1584 14.9755 30.0196C14.9271 30.0112 14.8791 30.0024 14.8311 29.9924C13.9303 30.6 12.8591 30.9336 11.7503 30.9336C9.8007 30.9336 8.0083 29.8792 7.0251 28.2548C4.6571 27.6332 2.8999 25.4688 2.8999 22.9168C2.8999 21.4008 3.5167 19.9808 4.5707 18.958C4.5679 18.8888 4.5667 18.8196 4.5667 18.75C4.5667 18.6732 4.5683 18.596 4.5719 18.5192C3.5171 17.4916 2.8999 16.0784 2.8999 14.5832C2.8999 12.6424 3.9535 10.8528 5.5763 9.86641C6.1723 7.57601 8.2127 5.85561 10.6531 5.73961C11.6403 4.33921 13.2027 3.41561 14.9363 3.25641C16.0999 2.17241 17.6247 1.56641 19.2495 1.56641C21.2799 1.56641 23.1743 2.54881 24.3567 4.14601C25.5111 4.34441 26.5663 4.90401 27.3747 5.73721C27.4439 5.73481 27.5135 5.73321 27.5831 5.73321C30.5363 5.73321 32.9551 8.06601 33.0935 10.9852C33.8599 11.5236 34.4859 12.2376 34.9223 13.0776C36.8563 14.0852 38.0999 16.0924 38.0999 18.3332C38.0999 19.9916 37.4047 21.5416 36.2355 22.644C36.3663 23.1368 36.4331 23.6476 36.4331 24.1664C36.4331 27.438 33.7715 30.0996 30.4999 30.0996C29.5015 30.0996 28.5383 29.8524 27.6811 29.3876C27.0867 29.6844 26.4507 29.8928 25.7951 30.0044C25.7639 30.0504 25.7323 30.096 25.6999 30.1412V31.9268C27.2119 32.6024 28.1967 34.1008 28.1967 35.8C28.1967 37.2336 27.0303 38.4 25.5967 38.4H15.4031Z" fill="#F2F2F2"/>
<path d="M24.4241 34.2208C24.0861 34.0996 23.1001 33.6476 23.1001 32.4772V25H17.9001V32.4768C17.9001 33.3052 16.9245 33.9772 16.4253 34.2672C15.8253 34.518 15.4033 35.1096 15.4033 35.8H16.9897H18.7325H22.2681H24.5825H25.5969C25.5969 35.054 25.1017 34.4308 24.4241 34.2208Z" fill="#D47F56"/>
<path opacity="0.35" d="M23.0999 30.1572V25H17.8999V30.1876C17.9123 30.1936 17.9243 30.2012 17.9371 30.2072C18.7095 30.6648 19.5871 30.9064 20.4791 30.9064C21.4259 30.906 22.3287 30.6344 23.0999 30.1572Z" fill="#40396E"/>
<path d="M8.39612 25.323C8.54732 25.323 8.69492 25.3078 8.84012 25.2858C9.02652 26.717 10.2473 27.823 11.7293 27.823C12.7745 27.823 13.6885 27.2714 14.2037 26.4454C14.6813 26.7866 15.2645 26.9898 15.8961 26.9898C16.1057 26.9898 16.3097 26.9666 16.5069 26.9246C16.8361 27.913 17.5657 28.7166 18.5025 29.1474C19.0789 29.4998 19.7541 29.7066 20.4793 29.7066C22.2137 29.7066 23.6737 28.5434 24.1293 26.9554C24.2985 26.9778 24.4709 26.9898 24.6461 26.9898C25.8873 26.9898 26.9989 26.4438 27.7621 25.5826C28.3661 26.433 29.3569 26.9898 30.4793 26.9898C32.3201 26.9898 33.8125 25.4974 33.8125 23.6566C33.8125 22.6382 33.3545 21.7282 32.6349 21.1166C34.2433 20.879 6.78532 25.323 8.39612 25.323Z" fill="#407845"/>
<path d="M10.2771 18.381C11.8569 18.381 13.1375 17.1003 13.1375 15.5206C13.1375 13.9408 11.8569 12.6602 10.2771 12.6602C8.69739 12.6602 7.41675 13.9408 7.41675 15.5206C7.41675 17.1003 8.69739 18.381 10.2771 18.381Z" fill="#739F4D"/>
<path d="M30.5533 22.0743C32.133 22.0743 33.4137 20.7937 33.4137 19.2139C33.4137 17.6342 32.133 16.3535 30.5533 16.3535C28.9735 16.3535 27.6929 17.6342 27.6929 19.2139C27.6929 20.7937 28.9735 22.0743 30.5533 22.0743Z" fill="#739F4D"/>
<path d="M19.2988 10.9902C21.0297 10.9902 22.4328 9.58703 22.4328 7.85617C22.4328 6.12531 21.0297 4.72217 19.2988 4.72217C17.5679 4.72217 16.1648 6.12531 16.1648 7.85617C16.1648 9.58703 17.5679 10.9902 19.2988 10.9902Z" fill="#96C362"/>
<path d="M23.0041 13.373C24.735 13.373 26.1381 11.9698 26.1381 10.239C26.1381 8.50812 24.735 7.10498 23.0041 7.10498C21.2733 7.10498 19.8701 8.50812 19.8701 10.239C19.8701 11.9698 21.2733 13.373 23.0041 13.373Z" fill="#96C362"/>
<path d="M27.236 14.5644C28.9669 14.5644 30.3701 13.1612 30.3701 11.4304C30.3701 9.69953 28.9669 8.29639 27.236 8.29639C25.5052 8.29639 24.1021 9.69953 24.1021 11.4304C24.1021 13.1612 25.5052 14.5644 27.236 14.5644Z" fill="#96C362"/>
<path d="M27.0996 17.7729C28.8304 17.7729 30.2336 16.3697 30.2336 14.6389C30.2336 12.908 28.8304 11.5049 27.0996 11.5049C25.3687 11.5049 23.9656 12.908 23.9656 14.6389C23.9656 16.3697 25.3687 17.7729 27.0996 17.7729Z" fill="#739F4D"/>
<path d="M23.3001 17.6002C25.0674 17.6002 26.5001 16.1675 26.5001 14.4002C26.5001 12.6329 25.0674 11.2002 23.3001 11.2002C21.5328 11.2002 20.1001 12.6329 20.1001 14.4002C20.1001 16.1675 21.5328 17.6002 23.3001 17.6002Z" fill="#739F4D"/>
<path d="M24.1496 20.2563C25.8805 20.2563 27.2836 18.8531 27.2836 17.1223C27.2836 15.3914 25.8805 13.9883 24.1496 13.9883C22.4188 13.9883 21.0156 15.3914 21.0156 17.1223C21.0156 18.8531 22.4188 20.2563 24.1496 20.2563Z" fill="#739F4D"/>
<path d="M15.7117 13.1094C17.597 13.1094 19.1253 11.5811 19.1253 9.69583C19.1253 7.81055 17.597 6.28223 15.7117 6.28223C13.8264 6.28223 12.2981 7.81055 12.2981 9.69583C12.2981 11.5811 13.8264 13.1094 15.7117 13.1094Z" fill="#96C362"/>
<path d="M11.0193 13.9C12.4928 13.9 13.6873 12.7055 13.6873 11.232C13.6873 9.75847 12.4928 8.56396 11.0193 8.56396C9.54582 8.56396 8.35132 9.75847 8.35132 11.232C8.35132 12.7055 9.54582 13.9 11.0193 13.9Z" fill="#96C362"/>
<path d="M8.35111 16.9981C9.8246 16.9981 11.0191 15.8036 11.0191 14.3301C11.0191 12.8566 9.8246 11.6621 8.35111 11.6621C6.87761 11.6621 5.68311 12.8566 5.68311 14.3301C5.68311 15.8036 6.87761 16.9981 8.35111 16.9981Z" fill="#96C362"/>
<path d="M10.7371 18.7824C12.571 18.7824 14.0575 17.2958 14.0575 15.462C14.0575 13.6282 12.571 12.1416 10.7371 12.1416C8.90334 12.1416 7.41675 13.6282 7.41675 15.462C7.41675 17.2958 8.90334 18.7824 10.7371 18.7824Z" fill="#96C362"/>
<path d="M15.7 17.1998C17.4673 17.1998 18.9 15.7671 18.9 13.9998C18.9 12.2325 17.4673 10.7998 15.7 10.7998C13.9327 10.7998 12.5 12.2325 12.5 13.9998C12.5 15.7671 13.9327 17.1998 15.7 17.1998Z" fill="#739F4D"/>
<path d="M11.9024 17.3062C12.8883 17.3062 13.6876 16.507 13.6876 15.521C13.6876 14.5351 12.8883 13.7358 11.9024 13.7358C10.9164 13.7358 10.1172 14.5351 10.1172 15.521C10.1172 16.507 10.9164 17.3062 11.9024 17.3062Z" fill="#739F4D"/>
<path d="M19.5825 16.2431C21.3133 16.2431 22.7165 14.84 22.7165 13.1091C22.7165 11.3782 21.3133 9.9751 19.5825 9.9751C17.8516 9.9751 16.4485 11.3782 16.4485 13.1091C16.4485 14.84 17.8516 16.2431 19.5825 16.2431Z" fill="#739F4D"/>
<path d="M12.0416 26.0177C13.4746 26.0177 14.6364 24.7906 14.6364 23.2769C14.6364 21.7632 13.4746 20.5361 12.0416 20.5361C10.6085 20.5361 9.44678 21.7632 9.44678 23.2769C9.44678 24.7906 10.6085 26.0177 12.0416 26.0177Z" fill="#407845"/>
<path d="M29.2315 24.6564C30.9401 24.6564 32.3251 23.2714 32.3251 21.5628C32.3251 19.8543 30.9401 18.4692 29.2315 18.4692C27.523 18.4692 26.1379 19.8543 26.1379 21.5628C26.1379 23.2714 27.523 24.6564 29.2315 24.6564Z" fill="#407845"/>
<path d="M20.6068 27.3703C22.498 27.3703 24.0312 25.8371 24.0312 23.9459C24.0312 22.0546 22.498 20.5215 20.6068 20.5215C18.7155 20.5215 17.1824 22.0546 17.1824 23.9459C17.1824 25.8371 18.7155 27.3703 20.6068 27.3703Z" fill="#407845"/>
<path d="M8.67358 25.5605C10.2315 25.5605 11.4944 24.2976 11.4944 22.7397C11.4944 21.1819 10.2315 19.9189 8.67358 19.9189C7.1157 19.9189 5.85278 21.1819 5.85278 22.7397C5.85278 24.2976 7.1157 25.5605 8.67358 25.5605Z" fill="#407845"/>
<path d="M16.0492 27.4353C17.6709 27.4353 18.9856 26.1206 18.9856 24.4989C18.9856 22.8772 17.6709 21.5625 16.0492 21.5625C14.4275 21.5625 13.1128 22.8772 13.1128 24.4989C13.1128 26.1206 14.4275 27.4353 16.0492 27.4353Z" fill="#407845"/>
<path d="M25.1715 24.5295C26.5275 24.5295 27.6267 23.4303 27.6267 22.0743C27.6267 20.7184 26.5275 19.6191 25.1715 19.6191C23.8155 19.6191 22.7163 20.7184 22.7163 22.0743C22.7163 23.4303 23.8155 24.5295 25.1715 24.5295Z" fill="#407845"/>
<path d="M32.1837 21.7325C33.814 21.7325 35.1357 20.3245 35.1357 18.5877C35.1357 16.8508 33.814 15.4429 32.1837 15.4429C30.5533 15.4429 29.2317 16.8508 29.2317 18.5877C29.2317 20.3245 30.5533 21.7325 32.1837 21.7325Z" fill="#407845"/>
<path d="M29.3615 19.2138C31.0924 19.2138 32.4955 17.8107 32.4955 16.0798C32.4955 14.3489 31.0924 12.9458 29.3615 12.9458C27.6307 12.9458 26.2275 14.3489 26.2275 16.0798C26.2275 17.8107 27.6307 19.2138 29.3615 19.2138Z" fill="#739F4D"/>
<path d="M22.9 24.4C24.6673 24.4 26.1 22.9673 26.1 21.2C26.1 19.4327 24.6673 18 22.9 18C21.1326 18 19.7 19.4327 19.7 21.2C19.7 22.9673 21.1326 24.4 22.9 24.4Z" fill="#739F4D"/>
<path d="M25.5967 36.4H15.4031C15.0719 36.4 14.8031 36.1316 14.8031 35.8C14.8031 34.9 15.3319 34.0924 16.1539 33.7308C16.8511 33.3196 17.2999 32.8296 17.2999 32.4768V29.586C16.8059 29.1752 16.4139 28.668 16.1443 28.092C15.5327 28.1344 14.9247 28.0116 14.3815 27.7456C13.7199 28.4976 12.7719 28.9328 11.7499 28.9328C10.1843 28.9328 8.8255 27.8912 8.3859 26.4328C6.4607 26.4168 4.8999 24.8456 4.8999 22.9168C4.8999 21.6036 5.6183 20.4296 6.7407 19.8244C6.6263 19.4768 6.5667 19.114 6.5667 18.7504C6.5667 18.3828 6.6271 18.0156 6.7447 17.6644C5.6335 17.0492 4.8999 15.86 4.8999 14.5832C4.8999 13.0268 5.9415 11.6692 7.3999 11.2228C7.4143 9.29641 8.9867 7.73321 10.9167 7.73321C11.2167 7.73321 11.5107 7.77081 11.7967 7.84561C12.3759 6.20001 13.9903 5.08801 15.8187 5.24721C16.6407 4.18801 17.8967 3.56641 19.2499 3.56641C20.9547 3.56641 22.4803 4.55561 23.1887 6.07401C24.5843 5.98321 25.8647 6.71801 26.5059 7.90201C26.8527 7.79081 27.2167 7.73321 27.5831 7.73321C29.5223 7.73321 31.0999 9.31081 31.0999 11.25C31.0999 11.55 31.0619 11.844 30.9875 12.1304C32.1271 12.5328 33.0183 13.4376 33.3999 14.5996C35.0071 15.1252 36.0999 16.6124 36.0999 18.3332C36.0999 19.9144 35.1351 21.32 33.7371 21.934C34.1863 22.584 34.4331 23.36 34.4331 24.1664C34.4331 26.3352 32.6687 28.0996 30.4999 28.0996C29.4627 28.0996 28.4735 27.6856 27.7435 26.968C26.8611 27.7156 25.7351 28.1244 24.5627 28.0984C24.3591 28.5884 24.0671 29.04 23.6999 29.43V32.4768C23.6999 33.2132 24.2807 33.5316 24.6267 33.656C25.5555 33.9436 26.1967 34.8084 26.1967 35.8C26.1967 36.1316 25.9279 36.4 25.5967 36.4ZM16.1891 35.2H24.8075C24.6755 35.012 24.4815 34.8668 24.2467 34.7936C23.8175 34.6404 22.4999 34.0456 22.4999 32.4768V29.182C22.4999 29.0168 22.5679 28.8588 22.6883 28.7456C23.1103 28.348 23.4159 27.848 23.5735 27.3C23.6555 27.0144 23.9391 26.832 24.2283 26.8704C24.3767 26.89 24.5243 26.9 24.6671 26.9C25.6831 26.9 26.6555 26.4608 27.3339 25.6948C27.4555 25.558 27.6283 25.4844 27.8155 25.4936C27.9979 25.5036 28.1663 25.5964 28.2723 25.7456C28.7855 26.4684 29.6187 26.9 30.5003 26.9C32.0075 26.9 33.2335 25.674 33.2335 24.1668C33.2335 23.3648 32.8815 22.606 32.2675 22.084C32.0883 21.9316 32.0143 21.688 32.0791 21.4616C32.1439 21.2352 32.3355 21.0676 32.5687 21.0332C33.8979 20.8372 34.9003 19.6764 34.9003 18.3332C34.9003 17.052 34.0283 15.9576 32.7795 15.6716C32.5551 15.6204 32.3803 15.4452 32.3287 15.2212C32.0827 14.1484 31.1871 13.3116 30.0999 13.1384C29.9111 13.1084 29.7483 12.9904 29.6607 12.8208C29.5731 12.6512 29.5715 12.45 29.6563 12.2788C29.8179 11.9536 29.8999 11.6072 29.8999 11.25C29.8999 9.97281 28.8603 8.93321 27.5831 8.93321C27.1967 8.93321 26.8147 9.03001 26.4779 9.21321C26.3207 9.29841 26.1347 9.30921 25.9687 9.24321C25.8031 9.17681 25.6755 9.04041 25.6203 8.87041C25.2615 7.75881 24.1123 7.06601 22.9307 7.31841C22.6299 7.38121 22.3331 7.21081 22.2367 6.92121C21.8071 5.63241 20.6071 4.76641 19.2499 4.76641C18.1759 4.76641 17.1867 5.30801 16.6023 6.21481C16.4711 6.41841 16.2299 6.52321 15.9907 6.48001C15.8179 6.44841 15.6575 6.43321 15.4999 6.43321C14.1503 6.43321 13.0167 7.40081 12.8051 8.73361C12.7751 8.92241 12.6571 9.08521 12.4875 9.17281C12.3171 9.26001 12.1155 9.26161 11.9455 9.17641C11.6207 9.01481 11.2743 8.93281 10.9171 8.93281C9.6399 8.93281 8.6003 9.97201 8.6003 11.2496C8.6003 11.3552 8.6099 11.4676 8.6307 11.6044C8.6555 11.7632 8.6147 11.9256 8.5183 12.0544C8.4223 12.1832 8.2779 12.268 8.1187 12.2896C6.9867 12.444 6.0999 13.4516 6.0999 14.5832C6.0999 15.5664 6.7667 16.4728 7.7211 16.7868C7.8915 16.8428 8.0279 16.972 8.0927 17.1388C8.1579 17.3056 8.1451 17.4932 8.0575 17.6496C7.8671 17.9896 7.7667 18.3704 7.7667 18.75C7.7667 19.1284 7.8663 19.5076 8.0551 19.8468C8.1423 20.004 8.1547 20.192 8.0883 20.3592C8.0219 20.5264 7.8839 20.6552 7.7127 20.7096C6.7479 21.0172 6.0999 21.904 6.0999 22.9168C6.0999 24.1944 7.1395 25.2336 8.4167 25.2336C8.5215 25.2336 8.6339 25.224 8.7707 25.2032C8.9295 25.1796 9.0931 25.22 9.2219 25.3172C9.3507 25.4144 9.4351 25.5592 9.4559 25.7192C9.6051 26.868 10.5915 27.734 11.7499 27.734C12.5531 27.734 13.2879 27.3248 13.7147 26.6388C13.8027 26.498 13.9443 26.4 14.1067 26.3676C14.2703 26.3348 14.4379 26.3716 14.5731 26.468C15.0999 26.8452 15.7587 26.9872 16.4011 26.8484C16.6991 26.7852 16.9995 26.9552 17.0959 27.2456C17.3055 27.8744 17.7043 28.4136 18.2499 28.8056C18.4071 28.918 18.4999 29.0992 18.4999 29.2924V32.4768C18.4999 33.5908 17.3887 34.4016 16.7259 34.786C16.7031 34.7992 16.6803 34.8108 16.6563 34.8204C16.4623 34.9016 16.3023 35.0348 16.1891 35.2Z" fill="#40396E"/>
<path d="M18.0867 22.016C21.4351 22.016 24.1495 20.2597 24.1495 18.0932C24.1495 15.9267 21.4351 14.1704 18.0867 14.1704C14.7383 14.1704 12.0239 15.9267 12.0239 18.0932C12.0239 20.2597 14.7383 22.016 18.0867 22.016Z" fill="#739F4D"/>
<path d="M21.5 20.8002C22.4941 20.8002 23.3 19.9943 23.3 19.0002C23.3 18.0061 22.4941 17.2002 21.5 17.2002C20.5058 17.2002 19.7 18.0061 19.7 19.0002C19.7 19.9943 20.5058 20.8002 21.5 20.8002Z" fill="#96C362"/>
<path d="M23.0896 21.3189C24.0756 21.3189 24.8748 20.5197 24.8748 19.5337C24.8748 18.5478 24.0756 17.7485 23.0896 17.7485C22.1037 17.7485 21.3044 18.5478 21.3044 19.5337C21.3044 20.5197 22.1037 21.3189 23.0896 21.3189Z" fill="#96C362"/>
<path d="M26.6999 20.3998C27.694 20.3998 28.4999 19.5939 28.4999 18.5998C28.4999 17.6057 27.694 16.7998 26.6999 16.7998C25.7058 16.7998 24.8999 17.6057 24.8999 18.5998C24.8999 19.5939 25.7058 20.3998 26.6999 20.3998Z" fill="#96C362"/>
<path d="M23.6624 19.5831C24.6483 19.5831 25.4476 18.7838 25.4476 17.7979C25.4476 16.812 24.6483 16.0127 23.6624 16.0127C22.6765 16.0127 21.8772 16.812 21.8772 17.7979C21.8772 18.7838 22.6765 19.5831 23.6624 19.5831Z" fill="#96C362"/>
<path d="M14.3 17.9999C15.2941 17.9999 16.1 17.194 16.1 16.1999C16.1 15.2058 15.2941 14.3999 14.3 14.3999C13.3059 14.3999 12.5 15.2058 12.5 16.1999C12.5 17.194 13.3059 17.9999 14.3 17.9999Z" fill="#96C362"/>
<path d="M11.7 17.6001C12.8045 17.6001 13.7 16.7047 13.7 15.6001C13.7 14.4955 12.8045 13.6001 11.7 13.6001C10.5954 13.6001 9.69995 14.4955 9.69995 15.6001C9.69995 16.7047 10.5954 17.6001 11.7 17.6001Z" fill="#96C362"/>
<path d="M14.7964 21.2569C16.2706 21.2569 17.4656 20.0618 17.4656 18.5877C17.4656 17.1135 16.2706 15.9185 14.7964 15.9185C13.3222 15.9185 12.1272 17.1135 12.1272 18.5877C12.1272 20.0618 13.3222 21.2569 14.7964 21.2569Z" fill="#739F4D"/>
<path d="M10.5 21.6C12.0463 21.6 13.3 20.3464 13.3 18.8C13.3 17.2536 12.0463 16 10.5 16C8.95355 16 7.69995 17.2536 7.69995 18.8C7.69995 20.3464 8.95355 21.6 10.5 21.6Z" fill="#739F4D"/>
<path d="M26.5001 22.8C27.8256 22.8 28.9001 21.7255 28.9001 20.4C28.9001 19.0745 27.8256 18 26.5001 18C25.1746 18 24.1001 19.0745 24.1001 20.4C24.1001 21.7255 25.1746 22.8 26.5001 22.8Z" fill="#739F4D"/>
<path d="M14.1532 23.2659C15.2721 23.2659 16.1792 22.3588 16.1792 21.2399C16.1792 20.1209 15.2721 19.2139 14.1532 19.2139C13.0343 19.2139 12.1272 20.1209 12.1272 21.2399C12.1272 22.3588 13.0343 23.2659 14.1532 23.2659Z" fill="#739F4D"/>
<path d="M17.9 25.2C19.336 25.2 20.5 24.0359 20.5 22.6C20.5 21.1641 19.336 20 17.9 20C16.4641 20 15.3 21.1641 15.3 22.6C15.3 24.0359 16.4641 25.2 17.9 25.2Z" fill="#739F4D"/>
<path d="M21.8773 24.3903C23.5364 24.3903 24.8813 23.0454 24.8813 21.3863C24.8813 19.7273 23.5364 18.3823 21.8773 18.3823C20.2182 18.3823 18.8733 19.7273 18.8733 21.3863C18.8733 23.0454 20.2182 24.3903 21.8773 24.3903Z" fill="#739F4D"/>
</svg>
