<svg width="40" height="41" viewBox="0 0 40 41" fill="none" xmlns="http://www.w3.org/2000/svg">
<path opacity="0.35" d="M35.3064 24.7461L34.1744 23.6141C33.834 23.2733 33.4508 22.9929 33.038 22.7777C33.1068 20.2937 32.3052 17.9069 32.1976 17.6005L31.2 14.6041V12.7641C31.2 11.2293 30.5904 9.8125 29.562 8.9685C28.9176 8.4441 28.1532 8.1673 27.3516 8.1673C27.1231 8.1673 26.8927 8.1909 26.6791 8.2345C26.1231 8.3445 25.6076 8.5385 25.1384 8.7845C25.1192 8.7185 25.0996 8.6525 25.0752 8.5877C23.6804 4.8665 21.192 2.7561 17.4676 2.1353C17.3264 2.1117 17.1832 2.1001 17.0408 2.1001C15.764 2.1001 14.6856 3.0141 14.4768 4.2713C14.4344 4.5261 14.43 4.7809 14.4612 5.0301C13.9288 4.8065 13.3528 4.6885 12.7584 4.6885C11.5816 4.6885 10.4768 5.1477 9.65995 5.9681C9.65635 5.9721 9.65235 5.9757 9.64915 5.9789C9.37035 5.9269 9.08635 5.9001 8.79995 5.9001C7.56675 5.9001 6.41035 6.3817 5.55275 7.2469C4.43755 8.3577 4.00235 9.9001 4.27515 11.3485C4.27475 11.3489 4.27435 11.3493 4.27395 11.3501C2.83595 12.7881 2.60275 14.9817 3.57715 16.6677C2.51555 18.1881 2.54035 20.2665 3.72395 21.7809C4.07475 22.2265 4.47555 22.7341 4.90395 23.2733C3.92075 23.8637 3.41115 25.0601 3.74075 26.2145C4.77235 29.8249 7.10155 32.2437 10.116 32.8465C10.2876 32.8821 10.464 32.9001 10.6416 32.9001C11.4392 32.9001 12.1652 32.5297 12.6472 31.9433C13.7096 32.7761 15.004 33.6605 16.3316 34.3729C17.366 34.9301 18.3048 35.3233 19.1684 35.5589C19.3852 36.2733 19.7744 36.9345 20.314 37.4741L21.446 38.6061C22.3136 39.4741 23.4692 39.9517 24.7 39.9517C25.9352 39.9517 27.0916 39.4721 27.95 38.6061L35.3068 31.2497C37.0956 29.4601 37.0968 26.5441 35.3064 24.7461ZM22.0544 12.1589C22.0908 12.1233 22.128 12.0877 22.162 12.0497C22.2088 12.0585 22.2548 12.0673 22.3024 12.0733C22.2744 12.1569 22.2448 12.2413 22.22 12.3245L22.0544 12.1589Z" fill="#1D1D1B"/>
<path d="M34.5064 23.9458L33.3744 22.8138C33.034 22.473 32.6508 22.1926 32.238 21.9774C32.3068 19.4934 31.5052 17.1066 31.3976 16.8002L30.4 13.8038V11.9638C30.4 10.429 29.7904 9.0122 28.762 8.1682C28.1176 7.6438 27.3532 7.367 26.5516 7.367C26.3232 7.367 26.0928 7.3906 25.8792 7.43421C25.3232 7.54421 24.8076 7.7382 24.3384 7.9842C24.3192 7.9182 24.2996 7.8522 24.2752 7.7874C22.8804 4.0662 20.392 1.9558 16.6676 1.335C16.5264 1.3114 16.3832 1.2998 16.2408 1.2998C14.964 1.2998 13.8856 2.2138 13.6768 3.471C13.6344 3.7258 13.63 3.9806 13.6612 4.2298C13.1288 4.0062 12.5528 3.8882 11.9584 3.8882C10.7816 3.8882 9.67683 4.3474 8.86003 5.1678C8.85643 5.1718 8.85243 5.1754 8.84923 5.1786C8.57043 5.1266 8.28643 5.0998 8.00003 5.0998C6.76683 5.0998 5.61043 5.5814 4.75283 6.4466C3.63763 7.5578 3.20243 9.0998 3.47483 10.5482C3.47443 10.5486 3.47403 10.549 3.47363 10.5498C2.03603 11.9878 1.80283 14.1814 2.77723 15.8674C1.71563 17.3878 1.74043 19.4662 2.92403 20.9806C3.27483 21.4262 3.67563 21.9338 4.10403 22.473C3.12083 23.0634 2.61123 24.2598 2.94083 25.4142C3.97243 29.0246 6.30163 31.4434 9.31603 32.0462C9.48763 32.0818 9.66403 32.0998 9.84163 32.0998C10.6392 32.0998 11.3652 31.7294 11.8472 31.143C12.9096 31.9758 14.204 32.8602 15.5316 33.5726C16.566 34.1298 17.5048 34.523 18.3684 34.7586C18.5852 35.473 18.9744 36.1342 19.514 36.6738L20.646 37.8058C21.5136 38.6738 22.6692 39.1514 23.9 39.1514C25.1352 39.1514 26.2916 38.6718 27.15 37.8058L34.5068 30.4494C36.2956 28.6598 36.2968 25.7438 34.5064 23.9458ZM21.2544 11.3586C21.2908 11.323 21.328 11.2874 21.362 11.2494C21.4088 11.2582 21.4548 11.267 21.5024 11.273C21.4744 11.3566 21.4448 11.441 21.42 11.5242L21.2544 11.3586Z" fill="#F2F2F2"/>
<path d="M32.6668 25.7848L31.354 24.472C30.7444 23.8624 29.8416 23.7352 29.102 24.0776C30.3316 21.8244 28.9308 17.6212 28.9308 17.6212L27.8 14.2268V11.964C27.8 10.8328 27.1832 9.8248 26.3856 9.984C25.2764 10.206 24.3792 11.0828 24.1228 11.6812C23.2744 13.6612 23.84 15.924 23.2744 17.0552L13.2336 7.0144C12.5308 6.3116 11.3908 6.3116 10.688 7.0144C9.9852 7.7172 9.9852 8.8572 10.688 9.56L9.4152 8.28721C8.634 7.50601 7.368 7.50601 6.5868 8.28721C5.8056 9.06841 5.8056 10.3344 6.5868 11.1156L7.8596 12.3884C7.1568 11.6856 6.0168 11.6856 5.314 12.3884C4.6112 13.0912 4.6112 14.2312 5.314 14.934L7.5036 17.124C6.8408 16.4612 5.7664 16.4612 5.104 17.124C4.4964 17.7316 4.4376 18.6964 4.9692 19.3716C6.7196 21.5964 10.4672 26.31 11.9608 27.8036C13.838 29.6808 18.7632 33.5876 20.7164 32.5432C20.452 33.254 20.6008 34.0836 21.172 34.6548L22.4848 35.9676C23.266 36.7488 24.532 36.7488 25.3132 35.9676L32.6672 28.6136C33.448 27.832 33.448 26.5656 32.6668 25.7848Z" fill="#FFC7A3"/>
<path d="M32.6668 28.6131L25.3132 35.9667C24.532 36.7479 23.266 36.7479 22.4848 35.9667L21.7732 35.2551C20.992 34.4739 20.992 33.2079 21.7732 32.4267L29.1272 25.0727C29.9084 24.2915 31.1744 24.2915 31.9556 25.0727L32.6672 25.7843C33.448 26.5655 33.448 27.8319 32.6668 28.6131Z" fill="#70BFFF"/>
<path opacity="0.35" d="M17.0648 15.075L10.9328 8.95582C10.698 8.72182 10.3184 8.72142 10.0844 8.95662C9.85043 9.19102 9.85083 9.57102 10.0852 9.80502L16.2172 15.9242C16.3344 16.0414 16.4876 16.0998 16.6412 16.0998C16.7952 16.0998 16.9488 16.0414 17.066 15.9238C17.2996 15.689 17.2992 15.309 17.0648 15.075Z" fill="#40396E"/>
<path opacity="0.35" d="M8.06164 11.7762C7.82564 11.5442 7.44524 11.5466 7.21324 11.7834C6.98084 12.0198 6.98404 12.3998 7.22044 12.6318L13.4204 18.7274C13.5372 18.8422 13.6892 18.8998 13.8412 18.8998C13.9964 18.8998 14.1516 18.8402 14.2688 18.7206C14.5012 18.4842 14.498 18.1042 14.2616 17.8722L8.06164 11.7762Z" fill="#40396E"/>
<path opacity="0.35" d="M7.86514 16.6758C7.63074 16.4414 7.25114 16.4414 7.01674 16.6758C6.78234 16.9102 6.78234 17.2898 7.01674 17.5242L11.4167 21.9242C11.5339 22.0418 11.6875 22.1002 11.8411 22.1002C11.9947 22.1002 12.1483 22.0418 12.2655 21.9246C12.4999 21.6902 12.4999 21.3106 12.2655 21.0762L7.86514 16.6758Z" fill="#40396E"/>
<path d="M9.95842 28.9115C8.09162 28.5379 6.72922 27.0247 6.01762 24.5351C5.92602 24.2163 5.59322 24.0315 5.27602 24.1231C4.95722 24.2143 4.77282 24.5463 4.86402 24.8647C5.69482 27.7727 7.42082 29.6275 9.72322 30.0883C9.76282 30.0963 9.80282 30.0999 9.84162 30.0999C10.1216 30.0999 10.372 29.9027 10.4292 29.6175C10.4944 29.2923 10.2836 28.9763 9.95842 28.9115Z" fill="#40396E"/>
<path d="M16.3868 5.71799C16.0616 5.63839 15.7392 5.83319 15.6592 6.15439C15.5788 6.47599 15.774 6.80159 16.0956 6.88199C16.612 7.01119 17.0788 7.23599 17.48 7.53879L18.2024 8.26119C18.5052 8.66239 18.7304 9.12959 18.8592 9.64559C18.9268 9.91799 19.172 10.1 19.4408 10.1C19.4888 10.1 19.538 10.094 19.5868 10.082C19.9084 10.0016 20.1036 9.67559 20.0232 9.35439C19.5676 7.53279 18.2084 6.17359 16.3868 5.71799Z" fill="#40396E"/>
<path d="M22.4028 8.48974C21.2648 5.45454 19.338 3.80814 16.34 3.30854C16.0132 3.25414 15.7036 3.47454 15.6492 3.80134C15.5944 4.12814 15.8156 4.43774 16.142 4.49214C18.7092 4.91974 20.2936 6.28294 21.2792 8.91094C21.3696 9.15174 21.598 9.30014 21.8412 9.30014C21.9112 9.30014 21.9828 9.28814 22.0516 9.26174C22.362 9.14534 22.5192 8.79974 22.4028 8.48974Z" fill="#40396E"/>
<path d="M24.2 34.2998C24.7522 34.2998 25.2 33.8521 25.2 33.2998C25.2 32.7475 24.7522 32.2998 24.2 32.2998C23.6477 32.2998 23.2 32.7475 23.2 33.2998C23.2 33.8521 23.6477 34.2998 24.2 34.2998Z" fill="#40396E"/>
<path d="M5.85955 18.9597C5.56595 18.6661 5.56875 18.1873 5.86635 17.8897C6.16395 17.5921 6.64275 17.5893 6.93635 17.8829C7.22955 18.1765 6.15315 19.2533 5.85955 18.9597Z" fill="#FFE8D9"/>
<path d="M6.07241 14.3313C5.74121 14.0005 5.74481 13.4605 6.08001 13.1253C6.41521 12.7901 6.95521 12.7865 7.28601 13.1177C7.61721 13.4485 6.40361 14.6621 6.07241 14.3313Z" fill="#FFE8D9"/>
<path d="M11.4459 8.96021C11.1147 8.62941 11.1183 8.08941 11.4535 7.75421C11.7887 7.41901 12.3287 7.41541 12.6595 7.74661C12.9907 8.07701 11.7771 9.29101 11.4459 8.96021Z" fill="#FFE8D9"/>
<path d="M7.41637 10.5129C7.03557 10.1321 7.03957 9.51092 7.42477 9.12532C7.81037 8.73972 8.43157 8.73572 8.81237 9.11652C9.19317 9.49692 7.79717 10.8933 7.41637 10.5129Z" fill="#FFE8D9"/>
<path d="M23.8988 37.1528C23.2044 37.1528 22.5516 36.882 22.0604 36.3912L20.9288 35.26C20.3208 34.6524 20.0776 33.8164 20.1988 33.0256C20.1908 33.0256 20.1836 33.0256 20.176 33.0256C19.2172 33.0256 17.9816 32.6208 16.4788 31.8128C14.4608 30.7276 12.5024 29.1936 11.5368 28.2276C10.0528 26.744 6.48961 22.2744 4.49761 19.7424C3.77921 18.83 3.85761 17.5216 4.67961 16.7C4.96041 16.4192 5.29641 16.2264 5.65281 16.122L4.89001 15.3588C3.95401 14.4228 3.95401 12.9004 4.89001 11.9648C5.19681 11.658 5.57161 11.4444 5.98081 11.3388C5.15361 10.318 5.21401 8.81242 6.16281 7.86362C6.65401 7.37202 7.30681 7.10202 8.00161 7.10202C8.60481 7.10202 9.17681 7.30602 9.63801 7.68122C9.74441 7.27242 9.95761 6.89762 10.264 6.59082C11.2 5.65442 12.7224 5.65482 13.658 6.59082L22.9372 15.8696C22.962 15.5836 22.9728 15.2676 22.9836 14.944C23.02 13.8624 23.0612 12.6356 23.5716 11.4456C23.9148 10.6448 24.9768 9.65442 26.2684 9.39642C26.7012 9.30962 27.1376 9.42482 27.498 9.72082C28.0544 10.1756 28.4 11.036 28.4 11.964V14.1296L29.5004 17.4312C29.56 17.6028 30.7152 20.9904 30.024 23.4708C30.7224 23.4352 31.4288 23.6972 31.96 24.2292L33.0916 25.3608C34.1052 26.3744 34.1052 28.0236 33.0916 29.0372L25.7372 36.3912C25.246 36.882 24.5932 37.1528 23.8988 37.1528ZM21.3532 31.4072C21.5068 31.4072 21.6604 31.4656 21.7776 31.5828C22.012 31.8168 22.012 32.1968 21.7776 32.4312C21.232 32.9772 21.232 33.8656 21.7776 34.4112L22.9092 35.5424C23.438 36.0712 24.36 36.0712 24.8888 35.5424L32.2432 28.1884C32.7888 27.6428 32.7888 26.7544 32.2432 26.2088L31.1116 25.0772C30.5656 24.532 29.6776 24.532 29.1316 25.0772C28.8972 25.3116 28.5176 25.3116 28.2832 25.0772C28.0488 24.8428 28.0488 24.4632 28.2832 24.2288C29.686 22.826 28.8176 19.1252 28.3648 17.8176L27.2312 14.4168C27.2104 14.3556 27.2 14.2916 27.2 14.2268V11.964C27.2 11.3204 26.96 10.8304 26.7372 10.6476C26.6316 10.5612 26.56 10.5616 26.5036 10.5724C25.61 10.7512 24.8672 11.4684 24.6748 11.9176C24.2532 12.9008 24.216 14.008 24.1832 14.984C24.152 15.9028 24.1252 16.696 23.8116 17.3236C23.7252 17.4964 23.5612 17.6164 23.3708 17.6476C23.1816 17.6784 22.9868 17.616 22.8504 17.4796L12.8092 7.43882C12.3416 6.97122 11.5804 6.97042 11.112 7.43882C10.8856 7.66522 10.7608 7.96642 10.7608 8.28722C10.7608 8.60802 10.8856 8.90922 11.112 9.13562C11.2292 9.25282 11.2876 9.40642 11.2876 9.56002C11.2876 9.71362 11.2292 9.86722 11.112 9.98442C10.8776 10.2188 10.498 10.2188 10.2636 9.98442L8.99081 8.71162C8.46201 8.18282 7.53961 8.18322 7.01081 8.71162C6.46521 9.25722 6.46521 10.1456 7.01081 10.6916L8.28401 11.9644C8.51841 12.1988 8.51841 12.5784 8.28401 12.8128C8.04961 13.0472 7.67001 13.0472 7.43561 12.8128C6.98201 12.3596 6.19201 12.3596 5.73841 12.8128C5.51201 13.0396 5.38681 13.3408 5.38681 13.6616C5.38681 13.982 5.51201 14.2832 5.73841 14.51L7.92841 16.7C8.04561 16.8172 8.10401 16.9708 8.10401 17.1244C8.10401 17.278 8.04561 17.4316 7.92841 17.5488C7.69401 17.7832 7.31441 17.7832 7.08001 17.5488C6.66521 17.134 5.94321 17.134 5.52841 17.5488C5.13601 17.9412 5.09841 18.5656 5.44081 19.0008C7.03161 21.0228 10.8916 25.886 12.3852 27.3796C13.2912 28.2856 15.136 29.7284 17.0472 30.756C18.9636 31.7868 20.4132 32.096 20.9276 31.5844C20.928 31.584 20.9284 31.5836 20.9288 31.5832C21.046 31.4656 21.1996 31.4072 21.3532 31.4072Z" fill="#40396E"/>
</svg>
